<svg width="623" height="962" viewBox="0 0 623 962" fill="none" xmlns="http://www.w3.org/2000/svg">
<g filter="url(#filter0_dd_7684_96694)">
<path fill-rule="evenodd" clip-rule="evenodd" d="M398.348 803.711L406.355 790.366L447.29 724.517L489.112 657.78L508.688 627.528C508.688 627.528 453.52 627.528 400.129 591.938C390.889 585.977 381.749 578.917 372.976 570.659C355.559 554.264 339.589 533.143 327.16 506.511V417.528C327.16 415.747 327.16 413.972 326.273 412.19C381.44 414.859 442.838 435.324 506.907 487.829C506.907 487.829 716.017 335.665 506.907 163.931H326.273V114.102H349.406C364.533 114.102 376.103 102.533 376.103 87.406L376.109 75.8363C376.109 60.71 364.539 49.1399 349.413 49.1399H326.279L326.273 35.795C326.273 26.0066 318.266 18 308.478 18C298.689 18 290.683 26.007 290.683 35.795V50.0337H267.549C252.422 50.0337 240.852 61.6033 240.852 76.7301V87.4061C240.852 102.532 252.422 114.103 267.549 114.103H290.683V163.931H110.938C-98.1719 335.668 110.938 487.829 110.938 487.829C110.938 487.829 184.793 419.311 291.572 412.19C290.685 413.972 290.685 415.747 290.685 417.528V505.623C278.147 533.084 262.009 554.135 244.414 570.659C235.781 578.767 226.797 585.785 217.716 591.936C164.323 627.526 109.157 627.526 109.157 627.526L127.847 657.779L211.492 790.365L244.414 843.758H376.125L398.348 803.711ZM344.972 245.795C344.972 225.324 328.952 209.311 308.488 209.311C288.912 209.311 272.003 225.331 272.003 245.795C272.003 266.266 288.023 282.28 308.488 282.28C328.959 282.28 344.972 266.26 344.972 245.795ZM240.857 381.047C243.526 381.047 247.089 380.159 249.758 378.378L308.494 341.007L367.224 376.597C369.893 378.378 372.568 379.266 376.125 379.266C382.35 379.266 387.694 375.703 391.251 370.365C395.695 362.352 393.026 351.676 385.019 346.338L342.309 320.536L385.019 294.734C393.92 290.284 396.589 278.714 391.251 270.707C386.8 261.807 375.231 259.137 367.224 264.476L308.494 300.065L249.764 264.476C241.751 260.031 231.075 262.7 225.737 270.707C220.399 279.607 223.068 290.284 231.962 296.516L274.673 322.317L231.962 348.119C223.062 352.57 220.393 364.139 225.731 372.146C229.287 378.378 234.625 381.047 240.857 381.047Z" fill="#FEF989"/>
<path d="M151.288 823.351C150.52 823.343 149.78 823.645 149.236 824.187C148.692 824.729 148.39 825.467 148.398 826.233V834.88H145.505C143.211 834.897 141.014 835.814 139.391 837.431C137.769 839.049 136.849 841.239 136.832 843.526V898.293C136.849 900.58 137.769 902.771 139.391 904.388C141.014 906.005 143.211 906.922 145.505 906.94H148.396L148.398 915.586C148.398 917.177 149.691 918.468 151.288 918.468C152.885 918.468 154.179 917.177 154.179 915.586V906.94H157.071C159.365 906.922 161.562 906.005 163.185 904.388C164.807 902.771 165.727 900.58 165.744 898.293V843.526C165.727 841.239 164.807 839.049 163.185 837.431C161.562 835.814 159.365 834.897 157.071 834.88H154.179V826.233C154.186 825.467 153.884 824.729 153.34 824.187C152.796 823.645 152.057 823.343 151.288 823.351Z" fill="#FEF989"/>
<path d="M379.233 823.351C378.465 823.343 377.725 823.645 377.181 824.187C376.637 824.729 376.335 825.467 376.343 826.233V834.88H373.45C371.156 834.897 368.959 835.814 367.336 837.431C365.714 839.049 364.795 841.239 364.777 843.526V898.293C364.794 900.58 365.714 902.771 367.336 904.388C368.959 906.005 371.156 906.922 373.45 906.94H376.341L376.343 915.586C376.343 917.177 377.636 918.468 379.233 918.468C380.83 918.468 382.124 917.177 382.124 915.586V906.94H385.016C387.31 906.922 389.507 906.005 391.13 904.388C392.752 902.771 393.672 900.58 393.689 898.293V843.526C393.672 841.239 392.752 839.049 391.13 837.431C389.507 835.814 387.31 834.897 385.016 834.88H382.124V826.233C382.131 825.467 381.829 824.729 381.285 824.187C380.741 823.645 380.002 823.343 379.233 823.351Z" fill="#FEF989"/>
<path d="M189.209 787.735C187.635 787.735 186.361 789.033 186.361 790.635V826.666H183.51C181.245 826.669 179.074 827.588 177.471 829.216C175.869 830.847 174.968 833.056 174.963 835.363V846.958C174.968 849.262 175.869 851.473 177.471 853.102C179.074 854.733 181.245 855.651 183.51 855.655H186.359L186.361 891.686C186.361 893.287 187.635 894.584 189.209 894.584C190.783 894.584 192.058 893.287 192.058 891.686V855.655H194.908C197.173 855.651 199.344 854.733 200.947 853.102C202.549 851.473 203.45 849.262 203.456 846.958V835.363C203.45 833.056 202.549 830.847 200.947 829.216C199.344 827.588 197.173 826.669 194.908 826.666H192.058V790.635C192.058 789.866 191.758 789.128 191.224 788.585C190.69 788.041 189.965 787.735 189.209 787.735ZM194.908 832.462C195.664 832.462 196.389 832.769 196.923 833.313C197.457 833.856 197.757 834.594 197.757 835.363V846.958C197.757 847.727 197.457 848.465 196.923 849.008C196.389 849.552 195.664 849.856 194.908 849.856H183.51C181.938 849.856 180.661 848.56 180.661 846.958V835.363C180.661 833.761 181.938 832.462 183.51 832.462H194.908Z" fill="#FEF989"/>
<path d="M194.908 832.462C195.664 832.462 196.389 832.769 196.923 833.313C197.457 833.856 197.757 834.594 197.757 835.363V846.958C197.757 847.727 197.457 848.465 196.923 849.008C196.389 849.552 195.664 849.856 194.908 849.856H183.51C181.938 849.856 180.661 848.56 180.661 846.958V835.363C180.661 833.761 181.938 832.462 183.51 832.462H194.908Z" fill="#FEF989"/>
<path d="M417.364 787.735C415.766 787.735 414.473 789.033 414.473 790.635V826.666H411.581C409.283 826.669 407.08 827.588 405.453 829.216C403.827 830.847 402.913 833.056 402.908 835.363V846.958C402.913 849.262 403.827 851.473 405.453 853.102C407.08 854.733 409.283 855.651 411.581 855.655H414.471L414.473 891.686C414.473 893.287 415.766 894.584 417.364 894.584C418.961 894.584 420.254 893.287 420.254 891.686V855.655H423.147C425.445 855.651 427.648 854.733 429.274 853.102C430.9 851.473 431.814 849.262 431.82 846.958V835.363C431.814 833.056 430.9 830.847 429.274 829.216C427.648 827.588 425.444 826.669 423.147 826.666H420.254V790.635C420.254 789.866 419.95 789.128 419.408 788.585C418.866 788.041 418.13 787.735 417.364 787.735ZM423.147 832.462C423.913 832.462 424.649 832.769 425.191 833.313C425.733 833.856 426.037 834.594 426.037 835.363V846.958C426.037 847.727 425.733 848.465 425.191 849.008C424.649 849.552 423.913 849.856 423.147 849.856H411.581C409.985 849.856 408.69 848.56 408.69 846.958V835.363C408.69 833.761 409.986 832.462 411.581 832.462H423.147Z" fill="#FEF989"/>
<path d="M423.147 832.462C423.913 832.462 424.649 832.769 425.191 833.313C425.733 833.856 426.037 834.594 426.037 835.363V846.958C426.037 847.727 425.733 848.465 425.191 849.008C424.649 849.552 423.913 849.856 423.147 849.856H411.581C409.985 849.856 408.69 848.56 408.69 846.958V835.363C408.69 833.761 409.986 832.462 411.581 832.462H423.147Z" fill="#FEF989"/>
<path d="M227.13 767.622C226.362 767.614 225.622 767.916 225.078 768.46C224.534 769.003 224.232 769.742 224.24 770.51V817.978H221.347C219.053 817.993 216.856 818.912 215.233 820.534C213.611 822.157 212.692 824.351 212.674 826.645V857.6C212.692 859.893 213.611 862.089 215.233 863.71C216.856 865.331 219.053 866.25 221.347 866.268H224.238L224.24 874.935C224.24 876.529 225.533 877.823 227.13 877.823C228.727 877.823 230.021 876.529 230.021 874.935V866.268H232.913C235.207 866.25 237.404 865.331 239.027 863.71C240.649 862.089 241.569 859.893 241.586 857.6V826.645C241.569 824.351 240.649 822.157 239.027 820.534C237.404 818.912 235.207 817.993 232.913 817.978H230.021V770.51C230.028 769.742 229.726 769.003 229.182 768.46C228.638 767.916 227.899 767.614 227.13 767.622Z" fill="#FEF989"/>
<path d="M455.494 805.333C454.726 805.326 453.986 805.628 453.442 806.171C452.898 806.715 452.596 807.454 452.604 808.222V855.689H449.711C447.417 855.705 445.22 856.624 443.597 858.245C441.975 859.868 441.056 862.062 441.038 864.357V895.312C441.056 897.604 441.975 899.8 443.597 901.421C445.22 903.043 447.417 903.962 449.711 903.979H452.602L452.604 912.646C452.604 914.241 453.897 915.535 455.494 915.535C457.091 915.535 458.385 914.241 458.385 912.646V903.979H461.277C463.571 903.962 465.768 903.043 467.391 901.421C469.013 899.8 469.933 897.604 469.95 895.312V864.357C469.933 862.062 469.013 859.868 467.391 858.245C465.768 856.624 463.571 855.705 461.277 855.689H458.385V808.222C458.392 807.454 458.09 806.715 457.546 806.171C457.002 805.628 456.263 805.326 455.494 805.333Z" fill="#FEF989"/>
<path d="M36.8965 791.506C35.2993 791.506 34.006 792.798 34.006 794.391V814.582H31.1135C28.0157 814.582 25.1525 816.231 23.6036 818.908C22.0528 821.586 22.0528 824.885 23.6036 827.562C25.1525 830.239 28.0159 831.888 31.1135 831.888H34.0041L34.006 887.927C34.006 889.521 35.2993 890.813 36.8965 890.813C38.4938 890.813 39.7871 889.521 39.7871 887.927V831.888H42.6796C45.7774 831.888 48.6407 830.239 50.1895 827.562C51.7403 824.885 51.7403 821.586 50.1895 818.908C48.6407 816.231 45.7772 814.582 42.6796 814.582H39.7891L39.7871 794.391C39.7871 793.627 39.4831 792.893 38.9411 792.352C38.399 791.811 37.6633 791.506 36.8965 791.506ZM42.6797 820.349V820.351C44.275 820.351 45.5702 821.642 45.5702 823.235C45.5702 824.829 44.275 826.119 42.6797 826.119H31.1135C29.5181 826.119 28.2229 824.829 28.2229 823.235C28.2229 821.642 29.5181 820.351 31.1135 820.351L42.6797 820.349Z" fill="#FEF989"/>
<path d="M42.6797 820.349V820.351C44.275 820.351 45.5702 821.642 45.5702 823.235C45.5702 824.829 44.275 826.119 42.6797 826.119H31.1135C29.5181 826.119 28.2229 824.829 28.2229 823.235C28.2229 821.642 29.5181 820.351 31.1135 820.351L42.6797 820.349Z" fill="#FEF989"/>
<path d="M265.261 791.506C263.663 791.506 262.37 792.798 262.37 794.391V814.582H259.478C256.38 814.582 253.517 816.231 251.968 818.908C250.417 821.586 250.417 824.885 251.968 827.562C253.517 830.239 256.38 831.888 259.478 831.888H262.368L262.37 887.927C262.37 889.521 263.663 890.813 265.261 890.813C266.858 890.813 268.151 889.521 268.151 887.927V831.888H271.044C274.141 831.888 277.005 830.239 278.554 827.562C280.104 824.885 280.104 821.586 278.554 818.908C277.005 816.231 274.141 814.582 271.044 814.582H268.153L268.151 794.391C268.151 793.627 267.847 792.893 267.305 792.352C266.763 791.811 266.027 791.506 265.261 791.506ZM271.044 820.349V820.351C272.639 820.351 273.934 821.642 273.934 823.235C273.934 824.829 272.639 826.119 271.044 826.119H259.478C257.882 826.119 256.587 824.829 256.587 823.235C256.587 821.642 257.882 820.351 259.478 820.351L271.044 820.349Z" fill="#FEF989"/>
<path d="M493.625 816.647C492.027 816.647 490.734 817.939 490.734 819.532V839.723H487.842C484.744 839.723 481.881 841.372 480.332 844.05C478.781 846.727 478.781 850.026 480.332 852.703C481.881 855.38 484.744 857.029 487.842 857.029H490.732L490.734 913.068C490.734 914.662 492.027 915.954 493.625 915.954C495.222 915.954 496.515 914.662 496.515 913.068V857.029H499.408C502.505 857.029 505.369 855.38 506.918 852.703C508.468 850.026 508.468 846.727 506.918 844.05C505.369 841.372 502.505 839.723 499.408 839.723H496.517L496.515 819.532C496.515 818.768 496.211 818.034 495.669 817.493C495.127 816.952 494.391 816.647 493.625 816.647ZM499.408 845.49V845.492C501.003 845.492 502.298 846.783 502.298 848.376C502.298 849.97 501.003 851.26 499.408 851.26H487.842C486.246 851.26 484.951 849.97 484.951 848.376C484.951 846.783 486.246 845.492 487.842 845.492L499.408 845.49Z" fill="#FEF989"/>
<path d="M499.408 845.49V845.492C501.003 845.492 502.298 846.783 502.298 848.376C502.298 849.97 501.003 851.26 499.408 851.26H487.842C486.246 851.26 484.951 849.97 484.951 848.376C484.951 846.783 486.246 845.492 487.842 845.492L499.408 845.49Z" fill="#FEF989"/>
<path d="M75.0271 798.629C74.2585 798.621 73.5189 798.923 72.9749 799.466C72.4309 800.009 72.1289 800.748 72.1367 801.515V810.174H69.2443C66.9502 810.192 64.7528 811.11 63.1304 812.729C61.5081 814.349 60.5885 816.543 60.571 818.833V861.719C60.5884 864.011 61.508 866.203 63.1304 867.823C64.7528 869.444 66.9501 870.36 69.2443 870.378H72.1347L72.1367 925.218C72.1367 926.812 73.4299 928.105 75.0271 928.105C76.6243 928.105 77.9175 926.812 77.9175 925.218V870.378H80.8099C83.104 870.36 85.3014 869.444 86.9238 867.823C88.5461 866.203 89.4657 864.011 89.4832 861.719V818.833C89.4657 816.543 88.5462 814.349 86.9238 812.729C85.3014 811.11 83.1041 810.192 80.8099 810.174H77.9194L77.9175 801.515C77.9252 800.748 77.6232 800.009 77.0792 799.466C76.5352 798.923 75.7957 798.621 75.0271 798.629Z" fill="#FEF989"/>
<path d="M303.182 798.629C302.424 798.621 301.695 798.923 301.159 799.466C300.623 800.009 300.325 800.748 300.333 801.515V810.174H297.483C295.222 810.192 293.056 811.11 291.457 812.729C289.859 814.349 288.952 816.543 288.935 818.833V861.719C288.952 864.011 289.858 866.203 291.457 867.823C293.056 869.444 295.222 870.36 297.483 870.378H300.331L300.333 925.218C300.333 926.812 301.608 928.105 303.182 928.105C304.756 928.105 306.03 926.812 306.03 925.218V870.378H308.881C311.141 870.36 313.307 869.444 314.906 867.823C316.505 866.203 317.411 864.011 317.428 861.719V818.833C317.411 816.543 316.505 814.349 314.906 812.729C313.307 811.11 311.142 810.192 308.881 810.174H306.032L306.03 801.515C306.038 800.748 305.74 800.009 305.204 799.466C304.668 798.923 303.939 798.621 303.182 798.629Z" fill="#FEF989"/>
<path d="M531.755 798.629C530.987 798.621 530.247 798.923 529.703 799.466C529.159 800.009 528.857 800.748 528.865 801.515V810.174H525.972C523.678 810.192 521.481 811.11 519.858 812.729C518.236 814.349 517.317 816.543 517.299 818.833V861.719C517.317 864.011 518.236 866.203 519.858 867.823C521.481 869.444 523.678 870.36 525.972 870.378H528.863L528.865 925.218C528.865 926.812 530.158 928.105 531.755 928.105C533.352 928.105 534.646 926.812 534.646 925.218V870.378H537.538C539.832 870.36 542.029 869.444 543.652 867.823C545.274 866.203 546.194 864.011 546.211 861.719V818.833C546.194 816.543 545.274 814.349 543.652 812.729C542.029 811.11 539.832 810.192 537.538 810.174H534.648L534.646 801.515C534.653 800.748 534.351 800.009 533.807 799.466C533.263 798.923 532.524 798.621 531.755 798.629Z" fill="#FEF989"/>
<path d="M113.158 939C113.924 939 114.66 938.696 115.202 938.155C115.744 937.613 116.048 936.879 116.048 936.113V892.798H118.94C121.239 892.793 123.442 891.88 125.068 890.256C126.694 888.631 127.608 886.431 127.614 884.136V841.232C127.608 838.937 126.694 836.734 125.068 835.112C123.442 833.488 121.238 832.573 118.94 832.569H107.375C105.077 832.573 102.873 833.488 101.247 835.112C99.6211 836.735 98.7073 838.937 98.7015 841.232V884.136C98.7073 886.431 99.6211 888.631 101.247 890.256C102.874 891.88 105.077 892.793 107.375 892.798H110.265L110.267 936.113C110.267 936.879 110.571 937.613 111.113 938.155C111.655 938.696 112.391 939 113.158 939ZM107.375 887.023C105.779 887.023 104.484 885.729 104.484 884.136V841.232C104.484 839.637 105.779 838.345 107.375 838.345H118.941C119.707 838.345 120.443 838.649 120.985 839.19C121.527 839.731 121.831 840.466 121.831 841.232V884.136C121.831 884.901 121.527 885.636 120.985 886.178C120.443 886.719 119.707 887.023 118.941 887.023H107.375Z" fill="#FEF989"/>
<path d="M107.375 887.023C105.779 887.023 104.484 885.729 104.484 884.136V841.232C104.484 839.637 105.779 838.345 107.375 838.345H118.941C119.707 838.345 120.443 838.649 120.985 839.19C121.527 839.731 121.831 840.466 121.831 841.232V884.136C121.831 884.901 121.527 885.636 120.985 886.178C120.443 886.719 119.707 887.023 118.941 887.023H107.375Z" fill="#FEF989"/>
<path d="M341.103 939C341.869 939 342.605 938.696 343.147 938.155C343.689 937.613 343.993 936.879 343.993 936.113V892.798H346.886C349.184 892.793 351.387 891.88 353.013 890.256C354.639 888.631 355.553 886.431 355.559 884.136V841.232C355.553 838.937 354.639 836.734 353.013 835.112C351.387 833.488 349.183 832.573 346.886 832.569H335.32C333.022 832.573 330.818 833.488 329.192 835.112C327.566 836.735 326.652 838.937 326.647 841.232V884.136C326.652 886.431 327.566 888.631 329.192 890.256C330.819 891.88 333.022 892.793 335.32 892.798H338.21L338.212 936.113C338.212 936.879 338.516 937.613 339.058 938.155C339.6 938.696 340.336 939 341.103 939ZM335.32 887.023C333.725 887.023 332.429 885.729 332.429 884.136V841.232C332.429 839.637 333.725 838.345 335.32 838.345H346.886C347.652 838.345 348.388 838.649 348.93 839.19C349.472 839.731 349.776 840.466 349.776 841.232V884.136C349.776 884.901 349.472 885.636 348.93 886.178C348.388 886.719 347.652 887.023 346.886 887.023H335.32Z" fill="#FEF989"/>
<path d="M335.32 887.023C333.725 887.023 332.429 885.729 332.429 884.136V841.232C332.429 839.637 333.725 838.345 335.32 838.345H346.886C347.652 838.345 348.388 838.649 348.93 839.19C349.472 839.731 349.776 840.466 349.776 841.232V884.136C349.776 884.901 349.472 885.636 348.93 886.178C348.388 886.719 347.652 887.023 346.886 887.023H335.32Z" fill="#FEF989"/>
<path d="M569.886 897.098C570.652 897.098 571.388 896.794 571.93 896.253C572.472 895.712 572.776 894.977 572.776 894.211V850.897H575.669C577.967 850.891 580.17 849.978 581.796 848.354C583.422 846.73 584.336 844.529 584.342 842.234V799.33C584.336 797.035 583.422 794.833 581.796 793.21C580.17 791.586 577.966 790.672 575.669 790.668H564.103C561.805 790.672 559.602 791.586 557.975 793.21C556.349 794.833 555.435 797.035 555.43 799.33V842.234C555.435 844.529 556.349 846.73 557.975 848.354C559.602 849.978 561.805 850.891 564.103 850.897H566.993L566.995 894.211C566.995 894.977 567.299 895.712 567.841 896.253C568.383 896.795 569.119 897.098 569.886 897.098ZM564.103 845.121C562.508 845.121 561.212 843.827 561.212 842.234V799.33C561.212 797.735 562.508 796.443 564.103 796.443H575.669C576.435 796.443 577.171 796.747 577.713 797.288C578.255 797.83 578.559 798.565 578.559 799.33V842.234C578.559 843 578.255 843.734 577.713 844.276C577.171 844.817 576.435 845.121 575.669 845.121H564.103Z" fill="#FEF989"/>
<path d="M564.103 845.121C562.508 845.121 561.212 843.827 561.212 842.234V799.33C561.212 797.735 562.508 796.443 564.103 796.443H575.669C576.435 796.443 577.171 796.747 577.713 797.288C578.255 797.83 578.559 798.565 578.559 799.33V842.234C578.559 843 578.255 843.734 577.713 844.276C577.171 844.817 576.435 845.121 575.669 845.121H564.103Z" fill="#FEF989"/>
</g>
<defs>
<filter id="filter0_dd_7684_96694" x="0.910419" y="0.910419" width="621.72" height="960.876" filterUnits="userSpaceOnUse" color-interpolation-filters="sRGB">
<feFlood flood-opacity="0" result="BackgroundImageFix"/>
<feColorMatrix in="SourceAlpha" type="matrix" values="0 0 0 0 0 0 0 0 0 0 0 0 0 0 0 0 0 0 127 0" result="hardAlpha"/>
<feOffset dx="5.69653" dy="5.69653"/>
<feGaussianBlur stdDeviation="8.54479"/>
<feComposite in2="hardAlpha" operator="out"/>
<feColorMatrix type="matrix" values="0 0 0 0 0.980392 0 0 0 0 0 0 0 0 0 1 0 0 0 1 0"/>
<feBlend mode="normal" in2="BackgroundImageFix" result="effect1_dropShadow_7684_96694"/>
<feColorMatrix in="SourceAlpha" type="matrix" values="0 0 0 0 0 0 0 0 0 0 0 0 0 0 0 0 0 0 127 0" result="hardAlpha"/>
<feOffset dx="-5.69653" dy="-5.69653"/>
<feGaussianBlur stdDeviation="5.69653"/>
<feComposite in2="hardAlpha" operator="out"/>
<feColorMatrix type="matrix" values="0 0 0 0 0.0170394 0 0 0 0 0.587157 0 0 0 0 1 0 0 0 1 0"/>
<feBlend mode="normal" in2="effect1_dropShadow_7684_96694" result="effect2_dropShadow_7684_96694"/>
<feBlend mode="normal" in="SourceGraphic" in2="effect2_dropShadow_7684_96694" result="shape"/>
</filter>
</defs>
</svg>
