<?xml version="1.0" encoding="UTF-8"?>
<!DOCTYPE svg PUBLIC "-//W3C//DTD SVG 1.1//EN" "http://www.w3.org/Graphics/SVG/1.1/DTD/svg11.dtd">
<svg xmlns="http://www.w3.org/2000/svg" version="1.1" width="500px" height="500px" style="shape-rendering:geometricPrecision; text-rendering:geometricPrecision; image-rendering:optimizeQuality; fill-rule:evenodd; clip-rule:evenodd" xmlns:xlink="http://www.w3.org/1999/xlink">
<g><path style="opacity:0.992" fill="#fe0000" d="M 238.5,34.5 C 330.1,33.1999 399.267,71.5332 446,149.5C 477.603,212.001 480.937,276.001 456,341.5C 424.456,412.037 370.956,455.87 295.5,473C 206.576,487.478 133.409,460.312 76,391.5C 27.0971,323.167 17.4304,249.5 47,170.5C 84.8917,88.7931 148.725,43.4598 238.5,34.5 Z"/></g>
<g><path style="opacity:1" fill="#f90502" d="M 131.5,159.5 C 218.833,159.5 306.167,159.5 393.5,159.5C 393.5,217.167 393.5,274.833 393.5,332.5C 306.167,332.5 218.833,332.5 131.5,332.5C 131.5,274.833 131.5,217.167 131.5,159.5 Z"/></g>
<g><path style="opacity:1" fill="#f7f5f6" d="M 195.5,181.5 C 208.365,180.73 221.032,181.896 233.5,185C 255.653,195.141 264.153,212.308 259,236.5C 256.247,251.512 252.247,266.179 247,280.5C 236.088,301.705 218.588,312.872 194.5,314C 173.263,316.93 156.096,310.097 143,293.5C 141.275,290.326 139.942,286.993 139,283.5C 137.922,256.286 143.588,230.62 156,206.5C 165.961,193.028 179.128,184.694 195.5,181.5 Z"/></g>
<g><path style="opacity:1" fill="#f7f5f6" d="M 295.5,183.5 C 314.836,183.333 334.17,183.5 353.5,184C 368.018,185.001 379.185,191.501 387,203.5C 390.226,218.156 388.226,232.156 381,245.5C 371.262,258.789 358.095,265.955 341.5,267C 331.833,267.333 322.167,267.667 312.5,268C 310.744,268.202 309.078,268.702 307.5,269.5C 304.369,283.557 301.036,297.557 297.5,311.5C 286.867,312.596 276.2,312.763 265.5,312C 264.866,309.925 264.532,307.759 264.5,305.5C 272.224,266.828 280.057,228.161 288,189.5C 289.542,186.108 292.042,184.108 295.5,183.5 Z"/></g>
<g><path style="opacity:1" fill="#f90804" d="M 199.5,209.5 C 219.129,205.963 227.296,213.963 224,233.5C 221.552,247.509 217.885,261.176 213,274.5C 204.951,285.051 194.451,288.551 181.5,285C 179,283.833 177.167,282 176,279.5C 174.955,275.755 174.455,271.921 174.5,268C 175.631,251.001 179.797,234.834 187,219.5C 190.598,215.306 194.765,211.972 199.5,209.5 Z"/></g>
<g><path style="opacity:1" fill="#f90f09" d="M 318.5,209.5 C 328.86,210.027 339.194,210.86 349.5,212C 353.952,216.825 354.786,222.325 352,228.5C 349.438,234.061 345.272,237.894 339.5,240C 331.221,241.497 322.888,241.831 314.5,241C 313.39,238.263 313.223,235.429 314,232.5C 316.011,224.917 317.511,217.25 318.5,209.5 Z"/></g>
</svg>
